<?xml version="1.0" encoding="utf-8"?>
<!-- Generator: Adobe Illustrator 27.6.1, SVG Export Plug-In . SVG Version: 6.00 Build 0)  -->
<svg version="1.1" id="Calque_1" xmlns="http://www.w3.org/2000/svg" xmlns:xlink="http://www.w3.org/1999/xlink" x="0px" y="0px"
	 viewBox="0 0 473 470.6" style="enable-background:new 0 0 473 470.6;" xml:space="preserve">
<style type="text/css">
	.st0{fill:#E30613;}
	.st1{fill:#004F9F;}
</style>
<g>
	<path class="st0" d="M173.7,79.7c0.6-0.6,1.1-0.8,1.6-0.8c0.9,0,1.5,0.8,1.5,1.7c0,0.5-0.3,1.2-0.8,1.7
		c-21.4,26.7-37,57.8-37,101.1s15.6,73.8,37,100.4c0.5,0.5,0.8,1.2,0.8,1.7c0,0.9-0.6,1.7-1.5,1.7c-0.5,0-1.1-0.2-1.6-0.8L82.4,198
		c-4.6-3.9-7.5-8.5-7.5-14.9s2.9-11.1,7.5-14.9L173.7,79.7"/>
	<path class="st1" d="M244,72.2c-35.8,0-49.7,50.7-49.7,111.1s14,110.5,49.7,110.5c21.5,0,39.8-12.6,39.8-22.9
		c0-2.3-0.9-4.4-2.8-6.3c-10.2-9.8-14.1-19.6-14.2-28.3c-0.1-16.5,14.3-28.9,27.5-28.9c18.2,0,28.9,14.3,28.9,32.8
		c0,17.6-7.5,32.2-15.6,43.9c-0.3,0.5-0.5,1-0.5,1.5c0,0.9,0.5,1.7,1.3,1.7c0.5,0,1.1-0.3,1.7-0.9l91.4-88.4
		c4.6-3.9,7.5-8.5,7.5-14.9s-2.9-11.1-7.5-14.9l-91.4-88.4c-0.6-0.6-1.2-0.9-1.7-0.9c-0.8,0-1.3,0.8-1.3,1.7c0,0.5,0.1,1,0.5,1.5
		c8.1,11.7,15.6,26.3,15.6,43.9c0,18.5-10.7,32.8-28.9,32.8c-13.2,0-27.6-12.4-27.5-28.9c0-8.7,4-18.5,14.2-28.3
		c1.9-1.9,2.8-4,2.8-6.3C283.7,84.9,265.5,72.3,244,72.2"/>
</g>
<path class="st1" d="M92.4,383.3c0-4.7,2-8.4,5.5-11c3.5-2.6,8.3-3.9,13.9-3.9c3.5,0,7.1,0.7,9.6,1.7V365c-0.1-5.3-2.1-8.3-8-8.3
	c-1.1,0-3.6,0.3-5.6,1c0.2,0.8,0.3,1.5,0.3,2.3c0,1.7-0.5,3.4-1.6,4.6c-1.1,1.2-2.6,1.9-4.5,1.9c-3.4,0-6-2.8-6-6.2
	c0.1-6.4,7.8-10.7,18.2-10.7c8.2,0,13.4,2,16.1,5.5c2.5,3.2,2.6,7.8,2.6,14.4v17.1c0,3.3,1.9,4.2,6,4.8l0.5,0.1v0.5
	c-0.3,4.5-3.6,6.4-7.1,6.7c-0.3,0-0.6,0-0.9,0c-3.5,0-6.9-1.7-8.5-5.2c-2.2,1.9-7.2,5.3-13.6,5.3C99.7,398.7,92.4,392.2,92.4,383.3
	 M385.9,396.4c-0.8-1.2-1.3-2.7-1.7-4.4c-0.5,0.5-1,1.1-1.9,1.9c-3.1,2.9-7.2,4.7-11.8,4.7c-5,0-9.3-1.9-12-5.1
	c-4.2-5-4.2-11.3-4.2-20.3v-8.7c-0.1-3.5-1.2-4.7-4.4-4.8c-0.4,0-0.9,0-1.4,0.1h-0.4l-0.1-0.3c-0.3-0.7-0.4-1.3-0.4-1.9
	c0.1-4.2,5.4-6.4,8.5-7.1c1.1-0.1,2.1-0.3,3.1-0.3c2.6,0,4.4,0.8,5.6,2.3c1.2,1.5,1.6,3.5,1.6,5.8l-0.1,14.8c0,5.5,0.4,9.5,1.6,12.2
	c1.2,2.6,3.1,3.8,6.5,3.9c3.7,0,5.9-1.6,7.4-4c1.4-2.4,2-5.6,2-8.7v-12c-0.1-3.5-1.2-4.7-4.4-4.8c-0.4,0-0.9,0-1.4,0.1h-0.4
	l-0.1-0.3c-0.3-0.7-0.4-1.3-0.4-1.9c0.1-4.2,5.4-6.4,8.5-7.1c1.1-0.1,2.1-0.3,3.1-0.3c2.6,0,4.4,0.8,5.6,2.3
	c1.2,1.5,1.7,3.5,1.7,5.8c0,1.7-0.1,4.7-0.1,17.3c0,5.3-0.1,8.2-0.1,9c0.1,3.6,1.3,5.2,4.7,5.3c0.4,0,0.7,0,1.1-0.1h0.4l0.1,0.3
	c0.3,0.7,0.4,1.2,0.4,1.8c-0.1,4.1-5.5,5.7-8.5,6.3c-1.1,0.2-2,0.3-2.9,0.3h-0.1C388.6,398.7,386.9,397.8,385.9,396.4 M217.9,374.8
	c0-7.4,2.4-13.7,6.7-18.2c4.2-4.5,10.3-7.2,17.5-7.1c6.5,0,11.4,2.4,14.5,5.9c3.2,3.5,4.7,7.9,4.7,12.1c0,2.4-0.5,4.7-1.6,6.6
	l-0.1,0.3h-29.2c0.5,8.5,5.9,14.4,15.3,14.4c5.8,0,10.2-3.2,11.7-5.1l0.3-0.4l0.4,0.3c0.8,0.6,1.7,1.7,1.7,3.8
	c0,4.9-5.8,11.2-18.4,11.2C228.4,398.5,217.9,388.2,217.9,374.8 M321.2,398.4c-6.6,0-12.6-2.5-16.9-6.8c-4.3-4.3-7-10.5-7-17.8
	c0-14.5,11.4-24.4,24.3-24.4c7,0,13,2.5,17.2,6.8c4.3,4.3,6.8,10.4,6.8,17.7c0,7.3-2.6,13.4-7,17.7
	C334.2,395.9,328.1,398.4,321.2,398.4L321.2,398.4L321.2,398.4z M410.5,396.9c-2-0.5-3.3-1.7-3.3-3.3c0-0.7,0.2-1.3,0.5-2.1l0.1-0.2
	h0.3c0.8-0.2,2.1-0.6,3.2-1.5c1.2-1,1.7-2.4,1.7-6.3v-19.6c-0.1-3.3-0.8-4.4-3.6-4.5c-0.6,0-1.3,0.1-2.2,0.2l-0.4,0.1l-0.1-0.4
	c-0.3-0.7-0.4-1.5-0.4-2.1c0.1-3.9,4.3-5.9,7.2-6.8c1.2-0.3,2.2-0.5,3.2-0.5c3.9,0,6,2.8,6.9,6.4c2.6-4.2,6.6-7,10.7-7
	c3.8,0,7.6,2.5,7.6,7.2c0,3.3-2.4,6.8-6.3,6.9c-2.9,0-5.5-1.9-6-4.7c-2.2,0.7-5.4,3.5-5.4,13.2v11.8c0,3.9,0.5,5.3,1.6,6.2
	c1.1,0.9,3.5,1.3,4.3,1.5h0.3l0.1,0.3c0.4,0.8,0.6,1.6,0.6,2.3c0,1.6-1.2,2.7-3.1,3.2c-1.9,0.6-4.7,0.8-8.5,0.8
	c-3.8,0-6.9-0.2-8.9-0.8 M269.3,397c-2-0.5-3.4-1.7-3.4-3.4c0-0.7,0.2-1.3,0.5-2.1l0.1-0.2h0.3c0.8-0.2,2.1-0.6,3.2-1.5
	c1.2-1,1.6-2.4,1.7-6.3v-25.7l-6.9-0.3l-0.1-0.3c-0.4-0.8-0.5-1.7-0.5-2.4c0-2.5,1.9-4.2,4.4-4.2h3v-2.8c0-6.9,1.3-10.8,3-13.4
	c2.7-4.2,7.4-7.1,14.5-7c9,0,16.5,4.2,16.5,10.9c0,2.9-2,6.5-6.2,6.5c-3.1,0-6-2.6-6.1-6c0-1.2,0.4-2.5,1-3.4
	c-0.9-0.8-2.7-1.3-4.4-1.3c-2.8,0-4.3,1-5.3,2.6c-1,1.6-1.3,3.9-1.3,6.6v7.4h11.9l0.1,0.3c0.4,0.9,0.5,1.7,0.5,2.5
	c0,2.6-1.8,4.5-4.2,4.7c-0.9,0.1-1.8,0.1-2.7,0.1c-2,0-3.9-0.1-5.4-0.2v25.5c0,3.9,0.7,5.2,1.8,6.2c1.1,0.8,4,1.3,4.8,1.5h0.3
	l0.1,0.3c0.3,0.7,0.5,1.3,0.5,1.9c0,1.7-1.4,2.9-3.6,3.5c-2.2,0.6-5.3,0.8-9.3,0.8C274.3,397.8,271.4,397.6,269.3,397 M186.6,397
	c-2-0.5-3.3-1.7-3.3-3.3c0-0.7,0.2-1.3,0.5-2.1l0.1-0.3h0.3c0.8-0.2,2-0.6,3.2-1.5c1.2-1,1.7-2.4,1.7-6.3V364
	c-0.1-3.3-0.9-4.4-3.6-4.5c-0.6,0-1.3,0.1-2.2,0.2l-0.4,0.1l-0.1-0.4c-0.3-0.7-0.4-1.5-0.4-2.1c0.1-3.9,4.3-5.9,7.3-6.8
	c1.1-0.3,2.2-0.5,3.2-0.5c3.9,0,6,2.8,7,6.3c2.6-4.2,6.7-6.9,10.7-6.9c3.7,0,7.6,2.5,7.6,7.2c0,3.3-2.4,6.8-6.3,6.9
	c-2.9,0-5.4-1.9-6-4.7c-2.2,0.7-5.4,3.5-5.5,13.2v11.8c0,3.9,0.6,5.2,1.7,6.2c1.1,0.9,3.4,1.3,4.3,1.5h0.3l0.1,0.3
	c0.4,0.8,0.6,1.6,0.6,2.3c0,1.6-1.2,2.7-3.1,3.2c-1.9,0.6-4.7,0.8-8.6,0.8S188.6,397.7,186.6,397 M147.5,397.1
	c-2-0.5-3.3-1.7-3.3-3.3c0-0.7,0.2-1.3,0.5-2.1l0.1-0.3h0.3c0.8-0.2,2.1-0.6,3.2-1.5c1.2-1,1.7-2.4,1.7-6.3v-19.6
	c-0.1-3.3-0.9-4.4-3.6-4.5c-0.6,0-1.3,0.1-2.2,0.2l-0.4,0.1l-0.1-0.4c-0.3-0.7-0.4-1.5-0.4-2.1c0.1-3.9,4.3-5.9,7.3-6.8
	c1.1-0.3,2.2-0.5,3.2-0.5c3.9,0,6.1,2.8,7,6.3c2.6-4.2,6.7-6.9,10.7-6.9c3.8,0,7.6,2.5,7.6,7.2c0,3.3-2.4,6.8-6.3,6.9
	c-2.9,0-5.4-1.9-6-4.7c-2.2,0.7-5.4,3.5-5.5,13.2v11.8c0,3.9,0.6,5.2,1.7,6.2c1.1,0.9,3.4,1.3,4.2,1.5h0.3l0.1,0.3
	c0.4,0.8,0.6,1.6,0.6,2.3c0,1.6-1.2,2.7-3.1,3.2c-1.9,0.6-4.7,0.8-8.6,0.8S149.4,397.7,147.5,397.1 M310.6,372.6
	c0,12.9,5.6,18.4,11.1,18.4c6.3,0,10.8-5.5,10.9-16.4c0-5.6-1.2-10.2-3.3-13.2c-2-3.1-4.8-4.7-8.1-4.7
	C314.7,356.8,310.6,362.7,310.6,372.6 M113.9,375.3c-5.2,0-8.6,2.5-8.7,7.3c0,4.5,3.1,7.6,7.9,7.6c3.1,0,6.3-1.7,8.3-4.2v-6.6
	c0-0.9-0.6-1.9-1.9-2.7C118.3,375.9,116.4,375.3,113.9,375.3 M247.6,367.6c0.9,0,1.2-0.2,1.3-0.5c0.2-0.3,0.2-0.9,0.2-1.7
	c-0.1-4.4-3.6-8.6-8.9-8.6c-6.7,0-9.5,5.4-9.9,10.8L247.6,367.6L247.6,367.6z M40.3,390.1c-5.7-5.8-9.4-14.4-9.4-24.9
	c0-10.1,3.6-18.7,9.2-24.7c5.6-6,13.2-9.5,21.2-9.5c14.4,0,24.6,10.1,24.6,18.8c0,4.7-3,8.3-6.9,8.3c-2,0-3.8-0.7-5.2-1.9
	c-1.3-1.3-2.2-3.1-2.2-5.4c0-2.7,1.4-4.4,2.4-5.6c-1.9-3.3-5.6-6-11.5-6c-5,0-9.2,2.6-12.2,7.1s-4.8,11.1-4.8,18.8
	c0,7.8,1.9,14.2,5,18.8c3.1,4.6,7.4,7.1,12.4,7.1c5.9,0,9.6-2.7,11.5-6c-1.1-1.2-2.4-2.8-2.4-5.5c0-2.3,0.8-4.2,2.2-5.4
	c1.3-1.3,3.2-1.9,5.2-1.9c4,0,6.9,3.6,6.9,8.2c0,8.7-10.2,18.8-24.6,18.8c-8,0-15.7-3.2-21.4-9 M40.2,390.2
	c-5.7-5.8-9.4-14.4-9.4-24.9c0-10.1,3.6-18.7,9.2-24.7c5.6-6,13.2-9.5,21.2-9.5c14.4,0,24.6,10.1,24.6,18.8c0,4.7-3,8.3-6.9,8.3
	c-2,0-3.8-0.7-5.2-1.9c-1.3-1.3-2.2-3.1-2.2-5.4c0-2.7,1.4-4.4,2.4-5.6c-1.9-3.3-5.6-6-11.5-6c-5,0-9.2,2.6-12.2,7.1
	s-4.8,11.1-4.8,18.8c0,7.8,1.9,14.2,5,18.8c3.1,4.6,7.4,7.1,12.4,7.1c5.9,0,9.6-2.7,11.5-6c-1.1-1.2-2.4-2.8-2.4-5.5
	c0-2.3,0.8-4.2,2.2-5.4c1.3-1.3,3.2-1.9,5.2-1.9c4,0,6.9,3.6,6.9,8.2c0,8.7-10.2,18.8-24.6,18.8c-8,0-15.7-3.2-21.4-9 M40.2,390.4
	c-5.7-5.8-9.4-14.4-9.4-24.9c0-10.1,3.6-18.7,9.2-24.7c5.6-6,13.2-9.5,21.2-9.5c14.4,0,24.6,10.1,24.6,18.8c0,4.7-3,8.3-6.9,8.3
	c-2,0-3.8-0.7-5.2-1.9c-1.3-1.3-2.2-3.1-2.2-5.4c0-2.7,1.4-4.4,2.4-5.6c-1.9-3.3-5.6-6-11.5-6c-5,0-9.2,2.6-12.2,7.1
	s-4.8,11.1-4.8,18.8c0,7.8,1.9,14.2,5,18.8c3.1,4.6,7.4,7.1,12.4,7.1c5.9,0,9.6-2.7,11.5-6c-1.1-1.2-2.4-2.8-2.4-5.5
	c0-2.3,0.8-4.2,2.2-5.4c1.3-1.3,3.2-1.9,5.2-1.9c4,0,6.9,3.6,6.9,8.2c0,8.7-10.2,18.8-24.6,18.8c-8,0-15.7-3.2-21.4-9"/>
</svg>
