<?xml version="1.0" encoding="utf-8"?>
<!-- Generator: Adobe Illustrator 27.6.1, SVG Export Plug-In . SVG Version: 6.00 Build 0)  -->
<svg version="1.1" id="Calque_1" xmlns="http://www.w3.org/2000/svg" xmlns:xlink="http://www.w3.org/1999/xlink" x="0px" y="0px"
	 viewBox="0 0 473 470.6" style="enable-background:new 0 0 473 470.6;" xml:space="preserve">
<style type="text/css">
	.st0{fill:url(#SVGID_1_);}
	.st1{fill:url(#SVGID_00000108294468488263440220000015665399759284987822_);}
	.st2{fill:url(#SVGID_00000149366324569610390890000008694385060182706875_);}
	.st3{fill:url(#SVGID_00000066503263320607172020000005341806859826593669_);}
	.st4{fill:url(#SVGID_00000054975235766854860520000005173690833397929873_);}
	.st5{fill:url(#SVGID_00000180334790769911639300000018172508517113174156_);}
	.st6{fill:url(#SVGID_00000069382421825831646920000016885356172624256141_);}
	.st7{fill:url(#SVGID_00000053538002093880893480000002244957648543774391_);}
	.st8{fill:url(#SVGID_00000047059768087632481970000004766554201351306116_);}
	.st9{fill:url(#SVGID_00000063617998790228439770000011397527456872703113_);}
	.st10{fill:url(#SVGID_00000181796504134305389770000012862894637640077242_);}
	.st11{fill:url(#SVGID_00000065785508886069863680000005175220033985859470_);}
	.st12{fill:url(#SVGID_00000146457937691308458050000005535507673093930892_);}
	.st13{fill:url(#SVGID_00000101099707711452036190000000994714559805020835_);}
</style>
<linearGradient id="SVGID_1_" gradientUnits="userSpaceOnUse" x1="-14.8808" y1="157.0146" x2="367.9192" y2="378.0247" gradientTransform="matrix(1 0 0 -1 0 471.089)">
	<stop  offset="0" style="stop-color:#E0DF00"/>
	<stop  offset="0.5" style="stop-color:#6BCDB2"/>
	<stop  offset="1" style="stop-color:#00C1DE"/>
</linearGradient>
<path class="st0" d="M241.6,152.4v71.9c0,1.8-1,2.8-2.8,2.8h-12.2c-1.8,0-2.8-1-2.8-2.8v-44.7l-14.1,33.3c-0.6,1.4-1.7,2.1-3.2,2.1
	h-7.5c-1.6,0-2.7-0.7-3.2-2.1l-14.1-33.3v44.7c0,1.8-1,2.8-2.8,2.8h-12.2c-1.8,0-2.8-1-2.8-2.8v-71.9c0-1.8,1-2.8,2.8-2.8h14.8
	c1.6,0,2.7,0.7,3.2,2.1l17.9,42.6l17.9-42.6c0.6-1.4,1.7-2.1,3.2-2.1h14.8C240.6,149.6,241.6,150.6,241.6,152.4"/>
<linearGradient id="SVGID_00000147184598291809952300000008073642830391963826_" gradientUnits="userSpaceOnUse" x1="12.9571" y1="116.7183" x2="379.4871" y2="328.3383" gradientTransform="matrix(1 0 0 -1 0 471.089)">
	<stop  offset="0" style="stop-color:#E0DF00"/>
	<stop  offset="0.5" style="stop-color:#6BCDB2"/>
	<stop  offset="1" style="stop-color:#00C1DE"/>
</linearGradient>
<path style="fill:url(#SVGID_00000147184598291809952300000008073642830391963826_);" d="M309,199.4c0,1.4-0.1,2.8-0.2,4.1
	c-0.2,1.8-1.3,2.6-3,2.6h-36.9c2,6.6,7.2,9.2,12.9,9.2c3.1,0,6.2-1.1,8.2-2.8c1.1-0.9,2-1.4,3.4-1.4l10.6-0.1c2,0,3.1,1.3,2.2,3.1
	c-4.3,9.6-13.4,14.6-24.7,14.6c-18.4,0-30.1-12.7-30.1-29.2s12.2-29.2,29.6-29.2C297.3,170.2,309,182.7,309,199.4 M292.5,193.5
	c-1.7-6.3-6.6-8.5-11.5-8.5c-6.2,0-10.5,3-12.2,8.5C268.8,193.5,292.5,193.5,292.5,193.5z"/>
<linearGradient id="SVGID_00000116915611470228090620000004153331438885194667_" gradientUnits="userSpaceOnUse" x1="9.2142" y1="76.3533" x2="396.2242" y2="299.7833" gradientTransform="matrix(1 0 0 -1 0 471.089)">
	<stop  offset="0" style="stop-color:#E0DF00"/>
	<stop  offset="0.5" style="stop-color:#6BCDB2"/>
	<stop  offset="1" style="stop-color:#00C1DE"/>
</linearGradient>
<path style="fill:url(#SVGID_00000116915611470228090620000004153331438885194667_);" d="M375,152.4v71.9c0,1.8-1,2.8-2.8,2.8h-11.1
	c-1.8,0-2.8-1-2.8-2.8v-2.4c-3.7,4.2-9.1,6.7-16.5,6.7c-14.5,0-26.4-12.7-26.4-29.2s12-29.2,26.4-29.2c7.4,0,12.8,2.5,16.5,6.7
	v-24.5c0-1.8,1-2.8,2.8-2.8h11.1C374,149.6,375,150.6,375,152.4 M358.4,199.4c0-8.3-5.5-13.5-13.2-13.5s-13.2,5.2-13.2,13.5
	s5.5,13.5,13.2,13.5S358.4,207.7,358.4,199.4"/>
<linearGradient id="SVGID_00000034080438090948123870000009141715631765574324_" gradientUnits="userSpaceOnUse" x1="-42.3629" y1="29.9583" x2="398.0271" y2="284.2184" gradientTransform="matrix(1 0 0 -1 0 471.089)">
	<stop  offset="0" style="stop-color:#E0DF00"/>
	<stop  offset="0.5" style="stop-color:#6BCDB2"/>
	<stop  offset="1" style="stop-color:#00C1DE"/>
</linearGradient>
<path style="fill:url(#SVGID_00000034080438090948123870000009141715631765574324_);" d="M387.1,162.4v-10c0-1.8,1-2.8,2.8-2.8H401
	c1.8,0,2.8,1,2.8,2.8v10c0,1.8-1,2.8-2.8,2.8h-11.1C388.1,165.1,387.1,164.1,387.1,162.4 M387.1,224.3v-49.8c0-1.8,1-2.8,2.8-2.8
	H401c1.8,0,2.8,1,2.8,2.8v49.8c0,1.8-1,2.8-2.8,2.8h-11.1C388.1,227.1,387.1,226.1,387.1,224.3"/>
<linearGradient id="SVGID_00000002345424589189116250000002641220230515062178_" gradientUnits="userSpaceOnUse" x1="31.4609" y1="33.329" x2="409.8309" y2="251.7789" gradientTransform="matrix(1 0 0 -1 0 471.089)">
	<stop  offset="0" style="stop-color:#E0DF00"/>
	<stop  offset="0.5" style="stop-color:#6BCDB2"/>
	<stop  offset="1" style="stop-color:#00C1DE"/>
</linearGradient>
<path style="fill:url(#SVGID_00000002345424589189116250000002641220230515062178_);" d="M461.8,192.2v32.1c0,1.8-1,2.8-2.8,2.8
	h-10.6c-1.8,0-2.8-1-2.8-2.8v-1.6c-3,3.5-7.3,5.9-14.3,5.9c-9.7,0-18.2-5.8-18.2-17.3c0-11.5,8.5-17.3,18.2-17.3
	c7,0,11.3,2,14.3,4.2v-5c0-5.4-2.2-7.9-6.9-7.9c-3.4,0-5.5,1.3-6.4,3.2c-0.7,1.6-1.2,2.4-2.9,2.4h-10.8c-1.8,0-2.9-1-2.8-2.9
	c1.4-11.9,11.6-18,22.9-18C451,170.2,461.8,177.3,461.8,192.2 M445.6,211.4c0-3.4-3-5.5-8.4-5.5c-5.1,0-7.5,2.3-7.5,5.5
	c0,3.2,2.4,5.5,7.5,5.5C442.7,216.9,445.6,214.6,445.6,211.4"/>
<linearGradient id="SVGID_00000182514910921894079080000004997284312354301105_" gradientUnits="userSpaceOnUse" x1="11.2403" y1="82.3227" x2="403.3103" y2="308.6927" gradientTransform="matrix(1 0 0 -1 0 471.089)">
	<stop  offset="0" style="stop-color:#E0DF00"/>
	<stop  offset="0.5" style="stop-color:#6BCDB2"/>
	<stop  offset="1" style="stop-color:#00C1DE"/>
</linearGradient>
<path style="fill:url(#SVGID_00000182514910921894079080000004997284312354301105_);" d="M207.8,244.8H220c1.8,0,2.8,1,2.8,2.8v71.9
	c0,1.8-1,2.8-2.8,2.8h-8.3c-1.4,0-2.7-0.6-3.4-1.8l-26.4-41.4v40.4c0,1.8-1,2.8-2.8,2.8h-12.2c-1.8,0-2.8-1-2.8-2.8v-71.9
	c0-1.8,1-2.8,2.8-2.8h8.3c1.4,0,2.7,0.6,3.4,1.8l26.4,41.4v-40.4C205.1,245.8,206.1,244.8,207.8,244.8"/>
<linearGradient id="SVGID_00000111181708402233091090000002409351331549163188_" gradientUnits="userSpaceOnUse" x1="29.01" y1="44.0332" x2="412.65" y2="265.5332" gradientTransform="matrix(1 0 0 -1 0 471.089)">
	<stop  offset="0" style="stop-color:#E0DF00"/>
	<stop  offset="0.5" style="stop-color:#6BCDB2"/>
	<stop  offset="1" style="stop-color:#00C1DE"/>
</linearGradient>
<path style="fill:url(#SVGID_00000111181708402233091090000002409351331549163188_);" d="M282.7,269.7v49.8c0,1.8-1,2.8-2.8,2.8
	h-11.1c-1.8,0-2.8-1-2.8-2.8v-2.3c-2.6,3.8-7.3,6.6-14.4,6.6c-10.3,0-17.7-8-17.7-21.8v-32.3c0-1.8,1-2.8,2.8-2.8h11.1
	c1.8,0,2.8,1,2.8,2.8v30.9c0,5.5,3.2,8,7.4,8c5,0,8.1-2.8,8.1-9.3v-29.5c0-1.8,1-2.8,2.8-2.8H280C281.7,267,282.7,268,282.7,269.7"
	/>
<linearGradient id="SVGID_00000060009462857258092080000001166137787251272631_" gradientUnits="userSpaceOnUse" x1="-8.2074" y1="7.7388" x2="432.1826" y2="261.9988" gradientTransform="matrix(1 0 0 -1 0 471.089)">
	<stop  offset="0" style="stop-color:#E0DF00"/>
	<stop  offset="0.5" style="stop-color:#6BCDB2"/>
	<stop  offset="1" style="stop-color:#00C1DE"/>
</linearGradient>
<path style="fill:url(#SVGID_00000060009462857258092080000001166137787251272631_);" d="M294.9,257.6v-10c0-1.8,1-2.8,2.8-2.8h11.1
	c1.8,0,2.8,1,2.8,2.8v10c0,1.8-1,2.8-2.8,2.8h-11.1C295.9,260.3,294.9,259.3,294.9,257.6 M294.9,319.5v-49.8c0-1.8,1-2.8,2.8-2.8
	h11.1c1.8,0,2.8,1,2.8,2.8v49.8c0,1.8-1,2.8-2.8,2.8h-11.1C295.9,322.3,294.9,321.3,294.9,319.5"/>
<linearGradient id="SVGID_00000165211741769173720720000013934810093141898130_" gradientUnits="userSpaceOnUse" x1="-28.5824" y1="278.6774" x2="265.4476" y2="448.4374" gradientTransform="matrix(1 0 0 -1 0 471.089)">
	<stop  offset="0" style="stop-color:#E0DF00"/>
	<stop  offset="0.5" style="stop-color:#6BCDB2"/>
	<stop  offset="1" style="stop-color:#00C1DE"/>
</linearGradient>
<path style="fill:url(#SVGID_00000165211741769173720720000013934810093141898130_);" d="M56,192.4L56,192.4L71.6,164L49,122.9
	c-0.6-1.1-1.5-2.1-2.5-2.8c-1.2-0.9-2.5-1.4-4-1.6c-0.4,0-0.8-0.1-1.2-0.1H15.2L56,192.4z"/>
<linearGradient id="SVGID_00000044856344624693930680000012537249077742423715_" gradientUnits="userSpaceOnUse" x1="-8.6084" y1="150.0304" x2="400.8616" y2="386.4404" gradientTransform="matrix(1 0 0 -1 0 471.089)">
	<stop  offset="0" style="stop-color:#E0DF00"/>
	<stop  offset="0.5" style="stop-color:#6BCDB2"/>
	<stop  offset="1" style="stop-color:#00C1DE"/>
</linearGradient>
<path style="fill:url(#SVGID_00000044856344624693930680000012537249077742423715_);" d="M15.2,344.8c0,4.9,4,8.8,8.8,8.8h22.5
	v-67.9L15.2,243V344.8L15.2,344.8z"/>
<linearGradient id="SVGID_00000082349899121656967430000005612087332598563758_" gradientUnits="userSpaceOnUse" x1="-50.867" y1="243.9181" x2="357.763" y2="479.8381" gradientTransform="matrix(1 0 0 -1 0 471.089)">
	<stop  offset="0" style="stop-color:#E0DF00"/>
	<stop  offset="0.5" style="stop-color:#6BCDB2"/>
	<stop  offset="1" style="stop-color:#00C1DE"/>
</linearGradient>
<path style="fill:url(#SVGID_00000082349899121656967430000005612087332598563758_);" d="M46.5,233.1v-49.2l-31.3-56.9v104.9h25
	C42.3,231.8,44.5,232.3,46.5,233.1"/>
<linearGradient id="SVGID_00000069361744729157773620000012880002188375063976_" gradientUnits="userSpaceOnUse" x1="-46.6114" y1="229.7256" x2="357.9886" y2="463.3256" gradientTransform="matrix(1 0 0 -1 0 471.089)">
	<stop  offset="0" style="stop-color:#E0DF00"/>
	<stop  offset="0.5" style="stop-color:#6BCDB2"/>
	<stop  offset="1" style="stop-color:#00C1DE"/>
</linearGradient>
<path style="fill:url(#SVGID_00000069361744729157773620000012880002188375063976_);" d="M84.4,196.7L84.4,196.7c0.2,0,0.4,0,0.6,0
	c0.2,0,0.4,0,0.6,0c0.2,0,0.3-0.1,0.5-0.1c0.2,0,0.4-0.1,0.6-0.1c0.2,0,0.3-0.1,0.4-0.2c0.6-0.2,1.2-0.4,1.7-0.8c0,0,0,0,0,0
	c0.7-0.4,1.3-0.9,1.8-1.4c0.5-0.5,0.9-1.1,1.2-1.7c0.1-0.1,0.1-0.2,0.2-0.2l5.2-9.4l0,0v-56.9l-39,70.9L84.4,196.7L84.4,196.7z"/>
<linearGradient id="SVGID_00000181795219738400711430000005257839943965310620_" gradientUnits="userSpaceOnUse" x1="-34.8945" y1="150.8537" x2="413.6055" y2="409.7937" gradientTransform="matrix(1 0 0 -1 0 471.089)">
	<stop  offset="0" style="stop-color:#E0DF00"/>
	<stop  offset="0.5" style="stop-color:#6BCDB2"/>
	<stop  offset="1" style="stop-color:#00C1DE"/>
</linearGradient>
<path style="fill:url(#SVGID_00000181795219738400711430000005257839943965310620_);" d="M132.8,126.9c0-2-0.7-3.8-1.9-5.2
	c-1.6-2.1-4.1-3.4-6.9-3.4h-22.5v185.5l31.3,42.7V127.1C132.8,127.1,132.8,127,132.8,126.9"/>
<linearGradient id="SVGID_00000048503591804336938320000003863862573865168289_" gradientUnits="userSpaceOnUse" x1="28.5551" y1="150.0918" x2="266.2651" y2="287.3318" gradientTransform="matrix(1 0 0 -1 0 471.089)">
	<stop  offset="0" style="stop-color:#E0DF00"/>
	<stop  offset="0.5" style="stop-color:#6BCDB2"/>
	<stop  offset="1" style="stop-color:#00C1DE"/>
</linearGradient>
<path style="fill:url(#SVGID_00000048503591804336938320000003863862573865168289_);" d="M49.4,240c-0.8-0.9-1.8-1.6-2.9-2.3
	c-0.2-0.1-0.4-0.3-0.7-0.4c-0.4-0.2-0.9-0.4-1.3-0.6c-0.7-0.2-1.4-0.4-2.1-0.6s-1.5-0.2-2.2-0.2h-25l82.2,112l1.5,2
	c0.4,0.6,0.9,1.1,1.4,1.5c0.4,0.3,0.8,0.6,1.3,0.9c0.3,0.2,0.6,0.4,1,0.5c0.2,0.1,0.5,0.2,0.7,0.3c0.9,0.3,1.8,0.5,2.8,0.5h26.9
	C132.8,353.6,49.7,240.3,49.4,240"/>
</svg>
